%
M48
M72
T01C0.02362
T02C0.03150
T03C0.03200
T04C0.07000
%
T01
X91800Y46800
X151800Y86800
X171800Y86800
X256800Y56800
X266800Y46800
X206800Y131800
X186800Y131800
X156800Y146800
X206800Y161800
X206800Y176800
X261800Y176800
X281800Y176800
X281800Y161800
X261800Y161800
X261800Y141800
X281800Y141800
T02
X276800Y126800
X266800Y126800
X256800Y126800
X246800Y126800
X286800Y126800
X296800Y126800
X306800Y126800
X316800Y126800
X326800Y126800
X336800Y126800
X346800Y126800
X356800Y126800
X366800Y126800
X376800Y126800
X386800Y126800
X386800Y186800
X376800Y186800
X366800Y186800
X356800Y186800
X346800Y186800
X336800Y186800
X326800Y186800
X316800Y186800
X306800Y186800
X296800Y186800
X286800Y186800
X276800Y186800
X266800Y186800
X256800Y186800
X246800Y186800
T03
X36800Y11800
X36800Y21800
X36800Y31800
X36800Y41800
X36800Y51800
X21800Y56800
X36800Y61800
X36800Y71800
X21800Y86800
X66800Y71800
X66800Y61800
X66800Y51800
X66800Y41800
X66800Y31800
X66800Y21800
X66800Y11800
X96800Y31800
X126800Y31800
X146800Y26800
X146800Y16800
X176800Y16800
X176800Y26800
X176800Y36800
X176800Y46800
X176800Y56800
X176800Y66800
X176800Y76800
X196800Y61800
X146800Y56800
X131800Y56800
X146800Y46800
X146800Y36800
X111800Y61800
X146800Y66800
X146800Y76800
X131800Y86800
X111800Y81800
X66800Y116800
X66800Y126800
X66800Y136800
X66800Y146800
X66800Y156800
X66800Y166800
X66800Y176800
X91800Y166800
X36800Y166800
X36800Y156800
X36800Y146800
X36800Y136800
X36800Y126800
X36800Y116800
X91800Y136800
X146800Y136800
X146800Y126800
X176800Y126800
X176800Y136800
X176800Y146800
X176800Y156800
X176800Y166800
X176800Y176800
X176800Y186800
X146800Y186800
X146800Y176800
X146800Y166800
X146800Y156800
X146800Y146800
X36800Y176800
X276800Y61800
X286800Y61800
X296800Y61800
X306800Y61800
X316800Y76800
X336800Y71800
X286800Y76800
X286800Y101800
X316800Y101800
X336800Y101800
X306800Y31800
X296800Y31800
X286800Y31800
X276800Y31800
X286800Y11800
X256800Y11800
X226800Y16800
X196800Y16800
X196800Y31800
T04
X236800Y126800
X236800Y186800
X396800Y186800
X396800Y126800
M30
