G75*
%MOIN*%
%OFA0B0*%
%FSLAX25Y25*%
%IPPOS*%
%LPD*%
%AMOC8*
5,1,8,0,0,1.08239X$1,22.5*
%
%ADD10R,0.05150X0.05150*%
%ADD11C,0.05150*%
%ADD12OC8,0.05200*%
%ADD13C,0.05200*%
%ADD14C,0.03200*%
%ADD15C,0.01600*%
%ADD16C,0.03962*%
D10*
X0386800Y0186800D03*
D11*
X0376800Y0186800D03*
X0366800Y0186800D03*
X0356800Y0186800D03*
X0346800Y0186800D03*
X0336800Y0186800D03*
X0326800Y0186800D03*
X0316800Y0186800D03*
X0306800Y0186800D03*
X0296800Y0186800D03*
X0286800Y0186800D03*
X0276800Y0186800D03*
X0266800Y0186800D03*
X0256800Y0186800D03*
X0246800Y0186800D03*
X0246800Y0126800D03*
X0256800Y0126800D03*
X0266800Y0126800D03*
X0276800Y0126800D03*
X0286800Y0126800D03*
X0296800Y0126800D03*
X0306800Y0126800D03*
X0316800Y0126800D03*
X0326800Y0126800D03*
X0336800Y0126800D03*
X0346800Y0126800D03*
X0356800Y0126800D03*
X0366800Y0126800D03*
X0376800Y0126800D03*
X0386800Y0126800D03*
D12*
X0336800Y0101800D03*
X0316800Y0101800D03*
X0286800Y0101800D03*
X0286800Y0076800D03*
X0316800Y0076800D03*
X0336800Y0071800D03*
X0226800Y0016800D03*
X0196800Y0016800D03*
X0196800Y0031800D03*
X0256800Y0011800D03*
X0286800Y0011800D03*
X0196800Y0061800D03*
X0131800Y0056800D03*
X0111800Y0061800D03*
X0111800Y0081800D03*
X0131800Y0086800D03*
X0091800Y0136800D03*
X0091800Y0166800D03*
X0021800Y0086800D03*
X0021800Y0056800D03*
X0096800Y0031800D03*
X0126800Y0031800D03*
D13*
X0039400Y0011800D02*
X0034200Y0011800D01*
X0034200Y0021800D02*
X0039400Y0021800D01*
X0039400Y0031800D02*
X0034200Y0031800D01*
X0034200Y0041800D02*
X0039400Y0041800D01*
X0039400Y0051800D02*
X0034200Y0051800D01*
X0034200Y0061800D02*
X0039400Y0061800D01*
X0039400Y0071800D02*
X0034200Y0071800D01*
X0064200Y0071800D02*
X0069400Y0071800D01*
X0069400Y0061800D02*
X0064200Y0061800D01*
X0064200Y0051800D02*
X0069400Y0051800D01*
X0069400Y0041800D02*
X0064200Y0041800D01*
X0064200Y0031800D02*
X0069400Y0031800D01*
X0069400Y0021800D02*
X0064200Y0021800D01*
X0064200Y0011800D02*
X0069400Y0011800D01*
X0144200Y0016800D02*
X0149400Y0016800D01*
X0149400Y0026800D02*
X0144200Y0026800D01*
X0144200Y0036800D02*
X0149400Y0036800D01*
X0149400Y0046800D02*
X0144200Y0046800D01*
X0144200Y0056800D02*
X0149400Y0056800D01*
X0149400Y0066800D02*
X0144200Y0066800D01*
X0144200Y0076800D02*
X0149400Y0076800D01*
X0174200Y0076800D02*
X0179400Y0076800D01*
X0179400Y0066800D02*
X0174200Y0066800D01*
X0174200Y0056800D02*
X0179400Y0056800D01*
X0179400Y0046800D02*
X0174200Y0046800D01*
X0174200Y0036800D02*
X0179400Y0036800D01*
X0179400Y0026800D02*
X0174200Y0026800D01*
X0174200Y0016800D02*
X0179400Y0016800D01*
X0276800Y0029200D02*
X0276800Y0034400D01*
X0286800Y0034400D02*
X0286800Y0029200D01*
X0296800Y0029200D02*
X0296800Y0034400D01*
X0306800Y0034400D02*
X0306800Y0029200D01*
X0306800Y0059200D02*
X0306800Y0064400D01*
X0296800Y0064400D02*
X0296800Y0059200D01*
X0286800Y0059200D02*
X0286800Y0064400D01*
X0276800Y0064400D02*
X0276800Y0059200D01*
X0179400Y0126800D02*
X0174200Y0126800D01*
X0174200Y0136800D02*
X0179400Y0136800D01*
X0179400Y0146800D02*
X0174200Y0146800D01*
X0174200Y0156800D02*
X0179400Y0156800D01*
X0179400Y0166800D02*
X0174200Y0166800D01*
X0174200Y0176800D02*
X0179400Y0176800D01*
X0179400Y0186800D02*
X0174200Y0186800D01*
X0149400Y0186800D02*
X0144200Y0186800D01*
X0144200Y0176800D02*
X0149400Y0176800D01*
X0149400Y0166800D02*
X0144200Y0166800D01*
X0144200Y0156800D02*
X0149400Y0156800D01*
X0149400Y0146800D02*
X0144200Y0146800D01*
X0144200Y0136800D02*
X0149400Y0136800D01*
X0149400Y0126800D02*
X0144200Y0126800D01*
X0069400Y0126800D02*
X0064200Y0126800D01*
X0064200Y0116800D02*
X0069400Y0116800D01*
X0039400Y0116800D02*
X0034200Y0116800D01*
X0034200Y0126800D02*
X0039400Y0126800D01*
X0039400Y0136800D02*
X0034200Y0136800D01*
X0034200Y0146800D02*
X0039400Y0146800D01*
X0039400Y0156800D02*
X0034200Y0156800D01*
X0034200Y0166800D02*
X0039400Y0166800D01*
X0039400Y0176800D02*
X0034200Y0176800D01*
X0064200Y0176800D02*
X0069400Y0176800D01*
X0069400Y0166800D02*
X0064200Y0166800D01*
X0064200Y0156800D02*
X0069400Y0156800D01*
X0069400Y0146800D02*
X0064200Y0146800D01*
X0064200Y0136800D02*
X0069400Y0136800D01*
D14*
X0066800Y0136800D02*
X0056800Y0136800D01*
X0056800Y0156800D01*
X0066800Y0156800D01*
X0056800Y0156800D02*
X0051800Y0156800D01*
X0051800Y0196800D01*
X0196800Y0196800D01*
X0196800Y0061800D01*
X0176800Y0046800D02*
X0256800Y0046800D01*
X0271800Y0061800D01*
X0276800Y0061800D01*
X0271800Y0061800D02*
X0271800Y0086800D01*
X0316800Y0086800D01*
X0316800Y0101800D01*
X0336800Y0101800D01*
X0271800Y0086800D02*
X0271800Y0186800D01*
X0276800Y0186800D01*
X0196800Y0196800D02*
X0376800Y0196800D01*
X0161800Y0126800D02*
X0161800Y0101800D01*
X0131800Y0101800D01*
X0131800Y0086800D01*
X0161800Y0101800D02*
X0161800Y0046800D01*
X0176800Y0046800D01*
X0176800Y0026800D02*
X0176800Y0016800D01*
X0176800Y0006800D01*
X0101800Y0006800D01*
X0081800Y0021800D01*
X0081800Y0086800D01*
X0056800Y0106800D01*
X0046800Y0131800D01*
X0036800Y0136800D01*
X0046800Y0141800D01*
X0046800Y0151800D01*
X0036800Y0156800D01*
X0146800Y0126800D02*
X0161800Y0126800D01*
D15*
X0166800Y0131800D02*
X0161800Y0136800D01*
X0146800Y0136800D01*
X0131800Y0141800D02*
X0101800Y0111800D01*
X0101800Y0071800D01*
X0111800Y0061800D01*
X0116800Y0066800D01*
X0146800Y0066800D01*
X0146800Y0056800D02*
X0131800Y0056800D01*
X0131800Y0031800D01*
X0126800Y0031800D01*
X0091800Y0046800D02*
X0091800Y0116800D01*
X0131800Y0151800D01*
X0151800Y0151800D01*
X0156800Y0146800D01*
X0166800Y0141800D02*
X0166800Y0156800D01*
X0166800Y0181800D01*
X0146800Y0186800D01*
X0146800Y0176800D02*
X0066800Y0176800D01*
X0066800Y0166800D02*
X0081800Y0166800D01*
X0081800Y0126800D01*
X0066800Y0126800D01*
X0066800Y0116800D01*
X0051800Y0091800D02*
X0036800Y0116800D01*
X0036800Y0126800D02*
X0026800Y0126800D01*
X0011800Y0116800D01*
X0011800Y0071800D01*
X0036800Y0071800D01*
X0026800Y0071800D01*
X0011800Y0071800D02*
X0011800Y0031800D01*
X0036800Y0031800D01*
X0026800Y0031800D01*
X0036800Y0041800D02*
X0051800Y0041800D01*
X0051800Y0051800D01*
X0066800Y0051800D01*
X0051800Y0051800D02*
X0051800Y0061800D01*
X0036800Y0061800D01*
X0051800Y0061800D02*
X0051800Y0071800D01*
X0066800Y0071800D01*
X0051800Y0071800D02*
X0051800Y0091800D01*
X0111800Y0081800D02*
X0116800Y0076800D01*
X0146800Y0076800D01*
X0146800Y0081800D01*
X0151800Y0086800D01*
X0171800Y0086800D02*
X0176800Y0091800D01*
X0186800Y0086800D01*
X0186800Y0056800D01*
X0191800Y0051800D01*
X0201800Y0051800D01*
X0206800Y0056800D01*
X0256800Y0056800D01*
X0266800Y0046800D02*
X0271800Y0041800D01*
X0296800Y0041800D01*
X0296800Y0031800D01*
X0286800Y0031800D02*
X0286800Y0011800D01*
X0316800Y0011800D01*
X0316800Y0071800D01*
X0316800Y0076800D01*
X0316800Y0071800D02*
X0336800Y0071800D01*
X0286800Y0076800D02*
X0286800Y0061800D01*
X0286800Y0101800D02*
X0286800Y0126800D01*
X0281800Y0141800D02*
X0346800Y0141800D01*
X0356800Y0131800D01*
X0356800Y0126800D01*
X0366800Y0116800D02*
X0371800Y0121800D01*
X0371800Y0131800D01*
X0341800Y0161800D01*
X0281800Y0161800D01*
X0261800Y0161800D02*
X0206800Y0161800D01*
X0206800Y0176800D02*
X0261800Y0176800D01*
X0281800Y0176800D02*
X0341800Y0176800D01*
X0386800Y0131800D01*
X0386800Y0126800D01*
X0366800Y0116800D02*
X0321800Y0116800D01*
X0316800Y0126800D01*
X0261800Y0141800D02*
X0221800Y0141800D01*
X0211800Y0131800D01*
X0206800Y0131800D01*
X0186800Y0131800D02*
X0166800Y0131800D01*
X0166800Y0141800D02*
X0176800Y0136800D01*
X0166800Y0141800D02*
X0131800Y0141800D01*
X0166800Y0156800D02*
X0176800Y0156800D01*
X0176800Y0126800D02*
X0176800Y0091800D01*
X0176800Y0036800D02*
X0181800Y0036800D01*
X0186800Y0031800D01*
X0196800Y0031800D01*
X0196800Y0016800D01*
X0066800Y0021800D02*
X0051800Y0021800D01*
X0051800Y0041800D01*
X0036800Y0051800D02*
X0021800Y0056800D01*
X0026800Y0126800D02*
X0026800Y0166800D01*
X0036800Y0166800D01*
X0036800Y0176800D01*
X0081800Y0166800D02*
X0091800Y0166800D01*
X0376800Y0186800D02*
X0376800Y0196800D01*
D16*
X0281800Y0176800D03*
X0261800Y0176800D03*
X0261800Y0161800D03*
X0281800Y0161800D03*
X0281800Y0141800D03*
X0261800Y0141800D03*
X0206800Y0131800D03*
X0186800Y0131800D03*
X0156800Y0146800D03*
X0206800Y0161800D03*
X0206800Y0176800D03*
X0171800Y0086800D03*
X0151800Y0086800D03*
X0091800Y0046800D03*
X0256800Y0056800D03*
X0266800Y0046800D03*
M02*
