G75*
%MOIN*%
%OFA0B0*%
%FSLAX25Y25*%
%IPPOS*%
%LPD*%
%AMOC8*
5,1,8,0,0,1.08239X$1,22.5*
%
%ADD10C,0.07800*%
%ADD11R,0.05950X0.05950*%
%ADD12C,0.05950*%
%ADD13OC8,0.06000*%
%ADD14C,0.06000*%
%ADD15C,0.04762*%
D10*
X0236800Y0126800D03*
X0236800Y0186800D03*
X0396800Y0186800D03*
X0396800Y0126800D03*
D11*
X0386800Y0186800D03*
D12*
X0376800Y0186800D03*
X0366800Y0186800D03*
X0356800Y0186800D03*
X0346800Y0186800D03*
X0336800Y0186800D03*
X0326800Y0186800D03*
X0316800Y0186800D03*
X0306800Y0186800D03*
X0296800Y0186800D03*
X0286800Y0186800D03*
X0276800Y0186800D03*
X0266800Y0186800D03*
X0256800Y0186800D03*
X0246800Y0186800D03*
X0246800Y0126800D03*
X0256800Y0126800D03*
X0266800Y0126800D03*
X0276800Y0126800D03*
X0286800Y0126800D03*
X0296800Y0126800D03*
X0306800Y0126800D03*
X0316800Y0126800D03*
X0326800Y0126800D03*
X0336800Y0126800D03*
X0346800Y0126800D03*
X0356800Y0126800D03*
X0366800Y0126800D03*
X0376800Y0126800D03*
X0386800Y0126800D03*
D13*
X0336800Y0101800D03*
X0316800Y0101800D03*
X0286800Y0101800D03*
X0286800Y0076800D03*
X0316800Y0076800D03*
X0336800Y0071800D03*
X0226800Y0016800D03*
X0196800Y0016800D03*
X0196800Y0031800D03*
X0256800Y0011800D03*
X0286800Y0011800D03*
X0196800Y0061800D03*
X0131800Y0056800D03*
X0111800Y0061800D03*
X0111800Y0081800D03*
X0131800Y0086800D03*
X0091800Y0136800D03*
X0091800Y0166800D03*
X0021800Y0086800D03*
X0021800Y0056800D03*
X0096800Y0031800D03*
X0126800Y0031800D03*
D14*
X0039400Y0011800D02*
X0034200Y0011800D01*
X0034200Y0021800D02*
X0039400Y0021800D01*
X0039400Y0031800D02*
X0034200Y0031800D01*
X0034200Y0041800D02*
X0039400Y0041800D01*
X0039400Y0051800D02*
X0034200Y0051800D01*
X0034200Y0061800D02*
X0039400Y0061800D01*
X0039400Y0071800D02*
X0034200Y0071800D01*
X0064200Y0071800D02*
X0069400Y0071800D01*
X0069400Y0061800D02*
X0064200Y0061800D01*
X0064200Y0051800D02*
X0069400Y0051800D01*
X0069400Y0041800D02*
X0064200Y0041800D01*
X0064200Y0031800D02*
X0069400Y0031800D01*
X0069400Y0021800D02*
X0064200Y0021800D01*
X0064200Y0011800D02*
X0069400Y0011800D01*
X0144200Y0016800D02*
X0149400Y0016800D01*
X0149400Y0026800D02*
X0144200Y0026800D01*
X0144200Y0036800D02*
X0149400Y0036800D01*
X0149400Y0046800D02*
X0144200Y0046800D01*
X0144200Y0056800D02*
X0149400Y0056800D01*
X0149400Y0066800D02*
X0144200Y0066800D01*
X0144200Y0076800D02*
X0149400Y0076800D01*
X0174200Y0076800D02*
X0179400Y0076800D01*
X0179400Y0066800D02*
X0174200Y0066800D01*
X0174200Y0056800D02*
X0179400Y0056800D01*
X0179400Y0046800D02*
X0174200Y0046800D01*
X0174200Y0036800D02*
X0179400Y0036800D01*
X0179400Y0026800D02*
X0174200Y0026800D01*
X0174200Y0016800D02*
X0179400Y0016800D01*
X0276800Y0029200D02*
X0276800Y0034400D01*
X0286800Y0034400D02*
X0286800Y0029200D01*
X0296800Y0029200D02*
X0296800Y0034400D01*
X0306800Y0034400D02*
X0306800Y0029200D01*
X0306800Y0059200D02*
X0306800Y0064400D01*
X0296800Y0064400D02*
X0296800Y0059200D01*
X0286800Y0059200D02*
X0286800Y0064400D01*
X0276800Y0064400D02*
X0276800Y0059200D01*
X0179400Y0126800D02*
X0174200Y0126800D01*
X0174200Y0136800D02*
X0179400Y0136800D01*
X0179400Y0146800D02*
X0174200Y0146800D01*
X0174200Y0156800D02*
X0179400Y0156800D01*
X0179400Y0166800D02*
X0174200Y0166800D01*
X0174200Y0176800D02*
X0179400Y0176800D01*
X0179400Y0186800D02*
X0174200Y0186800D01*
X0149400Y0186800D02*
X0144200Y0186800D01*
X0144200Y0176800D02*
X0149400Y0176800D01*
X0149400Y0166800D02*
X0144200Y0166800D01*
X0144200Y0156800D02*
X0149400Y0156800D01*
X0149400Y0146800D02*
X0144200Y0146800D01*
X0144200Y0136800D02*
X0149400Y0136800D01*
X0149400Y0126800D02*
X0144200Y0126800D01*
X0069400Y0126800D02*
X0064200Y0126800D01*
X0064200Y0116800D02*
X0069400Y0116800D01*
X0039400Y0116800D02*
X0034200Y0116800D01*
X0034200Y0126800D02*
X0039400Y0126800D01*
X0039400Y0136800D02*
X0034200Y0136800D01*
X0034200Y0146800D02*
X0039400Y0146800D01*
X0039400Y0156800D02*
X0034200Y0156800D01*
X0034200Y0166800D02*
X0039400Y0166800D01*
X0039400Y0176800D02*
X0034200Y0176800D01*
X0064200Y0176800D02*
X0069400Y0176800D01*
X0069400Y0166800D02*
X0064200Y0166800D01*
X0064200Y0156800D02*
X0069400Y0156800D01*
X0069400Y0146800D02*
X0064200Y0146800D01*
X0064200Y0136800D02*
X0069400Y0136800D01*
D15*
X0156800Y0146800D03*
X0186800Y0131800D03*
X0206800Y0131800D03*
X0261800Y0141800D03*
X0281800Y0141800D03*
X0281800Y0161800D03*
X0261800Y0161800D03*
X0261800Y0176800D03*
X0281800Y0176800D03*
X0206800Y0176800D03*
X0206800Y0161800D03*
X0171800Y0086800D03*
X0151800Y0086800D03*
X0091800Y0046800D03*
X0256800Y0056800D03*
X0266800Y0046800D03*
M02*
